<svg width="1879" height="151" viewBox="0 0 1879 151" fill="none" xmlns="http://www.w3.org/2000/svg">
<rect width="1879" height="151" fill="#FFCC3D"/>
<path d="M1536.29 21.5273L1573.5 21.5273L1541.1 132.548L1502.5 132.548L1536.29 21.5273Z" fill="#192F78"/>
<path d="M1615.79 21.3802L1653 21.3803L1620.6 132.401L1582 132.401L1615.79 21.3802Z" fill="#192F78"/>
<path d="M1694.79 20.3802L1732 20.3803L1699.6 131.401L1661 131.401L1694.79 20.3802Z" fill="#192F78"/>
<path d="M1775.79 20.3802L1813 20.3803L1780.6 131.401L1742 131.401L1775.79 20.3802Z" fill="#192F78"/>
<path d="M289 15.2021L323.73 15.2021L357.995 136.321L323.73 136.321L289 15.2021Z" fill="#192F78"/>
<path d="M209 15.2021L243.73 15.2021L277.995 136.321L243.73 136.321L209 15.2021Z" fill="#192F78"/>
<path d="M123 15.2021L157.73 15.2021L191.995 136.321L157.73 136.321L123 15.2021Z" fill="#192F78"/>
<path d="M43 15.2021L77.7303 15.2021L111.995 136.321L77.7303 136.321L43 15.2021Z" fill="#192F78"/>
</svg>
