<svg width="49" height="49" viewBox="0 0 49 49" fill="none" xmlns="http://www.w3.org/2000/svg">
<g id="OBJECTS">
<g id="Group">
<path id="Vector" fill-rule="evenodd" clip-rule="evenodd" d="M25.0708 2.98593C13.363 2.98593 3.84229 12.4336 3.84229 24.0501C3.84229 28.6568 5.34309 32.9264 7.88546 36.4002L5.23457 44.2214L13.3908 41.6297C16.7417 43.8284 20.757 45.1121 25.0708 45.1121C36.7738 45.1121 46.2971 35.6636 46.2971 24.0501C46.2971 12.4336 36.7738 2.98593 25.0708 2.98593Z" fill="url(#paint0_linear_37_910)"/>
<g id="Group_2">
<path id="Vector_2" fill-rule="evenodd" clip-rule="evenodd" d="M49.0002 23.8698C49.0002 37.0502 38.2311 47.7376 24.9465 47.7376C20.7277 47.7376 16.7641 46.6603 13.3185 44.7677L0 49L4.34136 36.1947C2.15057 32.5972 0.890934 28.3784 0.890934 23.8698C0.890934 10.6868 11.66 0 24.9465 0C38.2309 0 49.0002 10.6868 49.0002 23.8698ZM24.9465 3.80166C13.7923 3.80166 4.72169 12.8027 4.72169 23.87C4.72169 28.259 6.15147 32.3266 8.57368 35.6362L6.04808 43.0875L13.8186 40.6184C17.0111 42.7131 20.8366 43.9361 24.9463 43.9361C36.0959 43.9361 45.1691 34.9344 45.1691 23.87C45.1692 12.8026 36.0961 3.80166 24.9465 3.80166ZM37.0931 29.3674C36.9441 29.1232 36.5507 28.9768 35.9634 28.6841C35.3734 28.3921 32.4728 26.9752 31.9331 26.7813C31.3934 26.5866 30.9973 26.4886 30.6067 27.0733C30.2134 27.6585 29.083 28.9768 28.7379 29.3674C28.3949 29.7587 28.0518 29.8063 27.4618 29.5138C26.8711 29.2218 24.9703 28.6018 22.7191 26.6113C20.9673 25.0583 19.7839 23.1444 19.4381 22.5592C19.0958 21.9747 19.404 21.6582 19.6961 21.3662C19.9622 21.1027 20.2868 20.6828 20.5815 20.3426C20.877 19.9995 20.9749 19.7546 21.1715 19.364C21.3682 18.9734 21.2703 18.6331 21.1212 18.3404C20.9749 18.0484 19.7948 15.169 19.3027 13.9965C18.814 12.8272 18.3221 12.8709 17.9763 12.8709C17.6333 12.8709 16.9969 12.9729 16.9969 12.9729C16.9969 12.9729 15.8148 13.1192 15.2753 13.7045C14.7356 14.289 13.2125 15.7059 13.2125 18.5826C13.2125 21.4613 15.3235 24.2449 15.6183 24.6327C15.9136 25.024 19.6962 31.1247 25.6912 33.4671C31.6863 35.8089 31.6863 35.0277 32.7677 34.9289C33.8471 34.8337 36.2556 33.5147 36.7476 32.1481C37.2395 30.7816 37.2395 29.6096 37.0931 29.3674Z" fill="white"/>
</g>
</g>
</g>
<defs>
<linearGradient id="paint0_linear_37_910" x1="25.0698" y1="2.98593" x2="25.0698" y2="45.1122" gradientUnits="userSpaceOnUse">
<stop stop-color="#4AC14B"/>
<stop offset="1" stop-color="#06853A"/>
</linearGradient>
</defs>
</svg>
